<mxfile host="app.diagrams.net" modified="2024-02-18T01:39:32.462Z" agent="Mozilla/5.0 (Macintosh; Intel Mac OS X 10_15_7) AppleWebKit/537.36 (KHTML, like Gecko) Chrome/121.0.0.0 Safari/537.36" etag="Jsxm1kU8N4ep4xemy2nZ" version="23.1.5" type="device">
  <diagram name="Page-1" id="x91XP27tpD5Yn5Bc97Kj">
    <mxGraphModel dx="1242" dy="700" grid="1" gridSize="10" guides="1" tooltips="1" connect="1" arrows="1" fold="1" page="1" pageScale="1" pageWidth="850" pageHeight="1100" math="0" shadow="0">
      <root>
        <mxCell id="0" />
        <mxCell id="1" parent="0" />
        <mxCell id="-Cxwm64zh2NtwT7sseUx-5" value="" style="rounded=0;whiteSpace=wrap;html=1;fillColor=#d5e8d4;strokeColor=#82b366;sketch=1;curveFitting=1;jiggle=2;fontStyle=1;fontFamily=Comic Sans MS;" parent="1" vertex="1">
          <mxGeometry x="160" y="750" width="450" height="150" as="geometry" />
        </mxCell>
        <mxCell id="-Cxwm64zh2NtwT7sseUx-1" value="" style="rounded=0;whiteSpace=wrap;html=1;fillColor=#dae8fc;strokeColor=#6c8ebf;sketch=1;curveFitting=1;jiggle=2;fontStyle=1;fontFamily=Comic Sans MS;" parent="1" vertex="1">
          <mxGeometry x="630" y="485" width="170" height="245" as="geometry" />
        </mxCell>
        <mxCell id="D2M3IoL3ii1Mz8xwvadH-19" value="" style="rounded=0;whiteSpace=wrap;html=1;fillColor=#dae8fc;strokeColor=#6c8ebf;sketch=1;curveFitting=1;jiggle=2;fontStyle=1;fontFamily=Comic Sans MS;" parent="1" vertex="1">
          <mxGeometry x="160" y="590" width="450" height="150" as="geometry" />
        </mxCell>
        <mxCell id="D2M3IoL3ii1Mz8xwvadH-17" value="" style="rounded=0;whiteSpace=wrap;html=1;fillColor=#dae8fc;strokeColor=#6c8ebf;sketch=1;curveFitting=1;jiggle=2;fontStyle=1;fontFamily=Comic Sans MS;" parent="1" vertex="1">
          <mxGeometry x="160" y="440" width="450" height="140" as="geometry" />
        </mxCell>
        <mxCell id="-Cxwm64zh2NtwT7sseUx-23" style="edgeStyle=orthogonalEdgeStyle;rounded=0;orthogonalLoop=1;jettySize=auto;html=1;exitX=0.5;exitY=1;exitDx=0;exitDy=0;entryX=0;entryY=0.5;entryDx=0;entryDy=0;sketch=1;curveFitting=1;jiggle=2;fontStyle=1;fontFamily=Comic Sans MS;" parent="1" source="D2M3IoL3ii1Mz8xwvadH-3" target="D2M3IoL3ii1Mz8xwvadH-37" edge="1">
          <mxGeometry relative="1" as="geometry">
            <Array as="points">
              <mxPoint x="310" y="562" />
            </Array>
          </mxGeometry>
        </mxCell>
        <mxCell id="D2M3IoL3ii1Mz8xwvadH-3" value="GraphQL API" style="rounded=1;whiteSpace=wrap;html=1;sketch=1;curveFitting=1;jiggle=2;fontStyle=1;fontFamily=Comic Sans MS;" parent="1" vertex="1">
          <mxGeometry x="250" y="479" width="120" height="45" as="geometry" />
        </mxCell>
        <mxCell id="D2M3IoL3ii1Mz8xwvadH-4" value="Database" style="shape=cylinder3;whiteSpace=wrap;html=1;boundedLbl=1;backgroundOutline=1;size=15;sketch=1;curveFitting=1;jiggle=2;fontStyle=1;fontFamily=Comic Sans MS;" parent="1" vertex="1">
          <mxGeometry x="680" y="619.5" width="70" height="70" as="geometry" />
        </mxCell>
        <mxCell id="-Cxwm64zh2NtwT7sseUx-24" style="edgeStyle=orthogonalEdgeStyle;rounded=0;orthogonalLoop=1;jettySize=auto;html=1;exitX=0.5;exitY=1;exitDx=0;exitDy=0;entryX=0;entryY=0.25;entryDx=0;entryDy=0;sketch=1;curveFitting=1;jiggle=2;fontStyle=1;fontFamily=Comic Sans MS;" parent="1" source="D2M3IoL3ii1Mz8xwvadH-5" target="D2M3IoL3ii1Mz8xwvadH-37" edge="1">
          <mxGeometry relative="1" as="geometry" />
        </mxCell>
        <mxCell id="D2M3IoL3ii1Mz8xwvadH-5" value="RESTful API" style="rounded=1;whiteSpace=wrap;html=1;sketch=1;curveFitting=1;jiggle=2;fontStyle=1;fontFamily=Comic Sans MS;" parent="1" vertex="1">
          <mxGeometry x="410" y="479" width="120" height="45" as="geometry" />
        </mxCell>
        <mxCell id="-Cxwm64zh2NtwT7sseUx-15" style="edgeStyle=orthogonalEdgeStyle;rounded=0;orthogonalLoop=1;jettySize=auto;html=1;exitX=0.5;exitY=0;exitDx=0;exitDy=0;sketch=1;curveFitting=1;jiggle=2;fontStyle=1;fontFamily=Comic Sans MS;" parent="1" source="D2M3IoL3ii1Mz8xwvadH-8" target="-Cxwm64zh2NtwT7sseUx-4" edge="1">
          <mxGeometry relative="1" as="geometry">
            <Array as="points">
              <mxPoint x="350" y="780" />
              <mxPoint x="405" y="780" />
            </Array>
          </mxGeometry>
        </mxCell>
        <mxCell id="D2M3IoL3ii1Mz8xwvadH-8" value="Storage API" style="rounded=1;whiteSpace=wrap;html=1;sketch=1;curveFitting=1;jiggle=2;fontStyle=1;fontFamily=Comic Sans MS;" parent="1" vertex="1">
          <mxGeometry x="300" y="820" width="100" height="50" as="geometry" />
        </mxCell>
        <mxCell id="-Cxwm64zh2NtwT7sseUx-20" style="edgeStyle=orthogonalEdgeStyle;rounded=0;orthogonalLoop=1;jettySize=auto;html=1;exitX=1;exitY=0.5;exitDx=0;exitDy=0;sketch=1;curveFitting=1;jiggle=2;fontStyle=1;fontFamily=Comic Sans MS;" parent="1" source="D2M3IoL3ii1Mz8xwvadH-12" target="-Cxwm64zh2NtwT7sseUx-4" edge="1">
          <mxGeometry relative="1" as="geometry" />
        </mxCell>
        <mxCell id="D2M3IoL3ii1Mz8xwvadH-12" value="Job Queue" style="shape=process;whiteSpace=wrap;html=1;backgroundOutline=1;sketch=1;curveFitting=1;jiggle=2;fontStyle=1;fontFamily=Comic Sans MS;" parent="1" vertex="1">
          <mxGeometry x="220" y="648" width="100" height="30" as="geometry" />
        </mxCell>
        <mxCell id="D2M3IoL3ii1Mz8xwvadH-16" value="Indexer" style="rounded=1;whiteSpace=wrap;html=1;sketch=1;curveFitting=1;jiggle=2;fontStyle=1;fontFamily=Comic Sans MS;" parent="1" vertex="1">
          <mxGeometry x="490" y="645" width="90" height="37.5" as="geometry" />
        </mxCell>
        <mxCell id="D2M3IoL3ii1Mz8xwvadH-18" value="Experience Layer" style="text;html=1;strokeColor=none;fillColor=none;align=left;verticalAlign=middle;whiteSpace=wrap;rounded=0;fontStyle=1;sketch=1;curveFitting=1;jiggle=2;fontFamily=Comic Sans MS;" parent="1" vertex="1">
          <mxGeometry x="165" y="440" width="140" height="30" as="geometry" />
        </mxCell>
        <mxCell id="D2M3IoL3ii1Mz8xwvadH-20" value="Collection Layer" style="text;html=1;strokeColor=none;fillColor=none;align=left;verticalAlign=middle;whiteSpace=wrap;rounded=0;fontStyle=1;sketch=1;curveFitting=1;jiggle=2;fontFamily=Comic Sans MS;" parent="1" vertex="1">
          <mxGeometry x="164" y="591" width="100" height="25" as="geometry" />
        </mxCell>
        <mxCell id="D2M3IoL3ii1Mz8xwvadH-34" value="Client" style="shape=umlActor;verticalLabelPosition=bottom;verticalAlign=top;html=1;outlineConnect=0;sketch=1;curveFitting=1;jiggle=2;fontStyle=1;fontFamily=Comic Sans MS;" parent="1" vertex="1">
          <mxGeometry x="96.2" y="484" width="20" height="40" as="geometry" />
        </mxCell>
        <mxCell id="D2M3IoL3ii1Mz8xwvadH-37" value="Cache &lt;br&gt;&lt;span style=&quot;font-weight: normal;&quot;&gt;&lt;font style=&quot;font-size: 10px;&quot;&gt;(Read Through)&lt;/font&gt;&lt;/span&gt;" style="rounded=0;whiteSpace=wrap;html=1;sketch=1;curveFitting=1;jiggle=2;fontStyle=1;fontFamily=Comic Sans MS;" parent="1" vertex="1">
          <mxGeometry x="670" y="537.5" width="90" height="50" as="geometry" />
        </mxCell>
        <mxCell id="-Cxwm64zh2NtwT7sseUx-2" value="Data Layer" style="text;html=1;strokeColor=none;fillColor=none;align=left;verticalAlign=middle;whiteSpace=wrap;rounded=0;fontStyle=1;sketch=1;curveFitting=1;jiggle=2;fontFamily=Comic Sans MS;" parent="1" vertex="1">
          <mxGeometry x="635" y="485" width="140" height="30" as="geometry" />
        </mxCell>
        <mxCell id="-Cxwm64zh2NtwT7sseUx-17" style="edgeStyle=orthogonalEdgeStyle;rounded=0;orthogonalLoop=1;jettySize=auto;html=1;exitX=1;exitY=0.5;exitDx=0;exitDy=0;entryX=0;entryY=0.5;entryDx=0;entryDy=0;sketch=1;curveFitting=1;jiggle=2;fontStyle=1;fontFamily=Comic Sans MS;" parent="1" source="-Cxwm64zh2NtwT7sseUx-4" target="D2M3IoL3ii1Mz8xwvadH-16" edge="1">
          <mxGeometry relative="1" as="geometry" />
        </mxCell>
        <mxCell id="-Cxwm64zh2NtwT7sseUx-18" style="edgeStyle=orthogonalEdgeStyle;rounded=0;orthogonalLoop=1;jettySize=auto;html=1;exitX=0.25;exitY=1;exitDx=0;exitDy=0;entryX=0.5;entryY=1;entryDx=0;entryDy=0;dashed=1;sketch=1;curveFitting=1;jiggle=2;fontStyle=1;fontFamily=Comic Sans MS;" parent="1" source="-Cxwm64zh2NtwT7sseUx-4" target="D2M3IoL3ii1Mz8xwvadH-12" edge="1">
          <mxGeometry relative="1" as="geometry" />
        </mxCell>
        <mxCell id="-Cxwm64zh2NtwT7sseUx-4" value="Injester" style="rounded=1;whiteSpace=wrap;html=1;sketch=1;curveFitting=1;jiggle=2;fontStyle=1;fontFamily=Comic Sans MS;" parent="1" vertex="1">
          <mxGeometry x="360" y="643" width="90" height="40" as="geometry" />
        </mxCell>
        <mxCell id="-Cxwm64zh2NtwT7sseUx-6" value="Greenfield Blockchain" style="text;html=1;strokeColor=none;fillColor=none;align=left;verticalAlign=middle;whiteSpace=wrap;rounded=0;fontStyle=1;sketch=1;curveFitting=1;jiggle=2;fontFamily=Comic Sans MS;" parent="1" vertex="1">
          <mxGeometry x="167" y="755" width="113" height="30" as="geometry" />
        </mxCell>
        <mxCell id="-Cxwm64zh2NtwT7sseUx-8" value="Base API" style="rounded=1;whiteSpace=wrap;html=1;sketch=1;curveFitting=1;jiggle=2;fontStyle=1;fontFamily=Comic Sans MS;" parent="1" vertex="1">
          <mxGeometry x="440" y="820" width="100" height="50" as="geometry" />
        </mxCell>
        <mxCell id="-Cxwm64zh2NtwT7sseUx-11" value="Buckets &amp;amp; Objects Metadata" style="text;html=1;strokeColor=none;fillColor=none;align=center;verticalAlign=middle;whiteSpace=wrap;rounded=0;sketch=1;curveFitting=1;jiggle=2;fontStyle=0;fontFamily=Comic Sans MS;fontSize=10;" parent="1" vertex="1">
          <mxGeometry x="282" y="780" width="60" height="30" as="geometry" />
        </mxCell>
        <mxCell id="-Cxwm64zh2NtwT7sseUx-12" value="New Block Tx Emitter" style="text;html=1;strokeColor=none;fillColor=none;align=center;verticalAlign=middle;whiteSpace=wrap;rounded=0;sketch=1;curveFitting=1;jiggle=2;fontStyle=0;fontFamily=Comic Sans MS;fontSize=10;" parent="1" vertex="1">
          <mxGeometry x="500" y="780" width="60" height="30" as="geometry" />
        </mxCell>
        <mxCell id="-Cxwm64zh2NtwT7sseUx-16" style="edgeStyle=orthogonalEdgeStyle;rounded=0;orthogonalLoop=1;jettySize=auto;html=1;exitX=0.5;exitY=0;exitDx=0;exitDy=0;entryX=0.65;entryY=0.974;entryDx=0;entryDy=0;entryPerimeter=0;sketch=1;curveFitting=1;jiggle=2;fontStyle=1;fontFamily=Comic Sans MS;" parent="1" source="-Cxwm64zh2NtwT7sseUx-8" target="-Cxwm64zh2NtwT7sseUx-4" edge="1">
          <mxGeometry relative="1" as="geometry">
            <Array as="points">
              <mxPoint x="490" y="780" />
              <mxPoint x="419" y="780" />
            </Array>
          </mxGeometry>
        </mxCell>
        <mxCell id="-Cxwm64zh2NtwT7sseUx-26" value="" style="html=1;verticalLabelPosition=bottom;align=center;labelBackgroundColor=#ffffff;verticalAlign=top;strokeWidth=2;strokeColor=#000000;shadow=0;dashed=0;shape=mxgraph.ios7.icons.gauge;sketch=1;curveFitting=1;jiggle=2;fontStyle=1;fontFamily=Comic Sans MS;" parent="1" vertex="1">
          <mxGeometry x="95" y="657.72" width="22.4" height="22.28" as="geometry" />
        </mxCell>
        <mxCell id="-Cxwm64zh2NtwT7sseUx-27" value="Scheduler" style="text;html=1;strokeColor=none;fillColor=none;align=center;verticalAlign=middle;whiteSpace=wrap;rounded=0;sketch=1;curveFitting=1;jiggle=2;fontStyle=1;fontFamily=Comic Sans MS;" parent="1" vertex="1">
          <mxGeometry x="76.19999999999999" y="679.5" width="60" height="30" as="geometry" />
        </mxCell>
        <mxCell id="-Cxwm64zh2NtwT7sseUx-28" value="next iteration" style="text;html=1;strokeColor=none;fillColor=none;align=center;verticalAlign=middle;whiteSpace=wrap;rounded=0;sketch=1;curveFitting=1;jiggle=2;fontStyle=0;fontFamily=Comic Sans MS;fontSize=10;" parent="1" vertex="1">
          <mxGeometry x="282" y="700" width="88" height="30" as="geometry" />
        </mxCell>
        <mxCell id="-Cxwm64zh2NtwT7sseUx-29" style="edgeStyle=orthogonalEdgeStyle;rounded=0;orthogonalLoop=1;jettySize=auto;html=1;exitX=0.5;exitY=0.5;exitDx=0;exitDy=0;exitPerimeter=0;entryX=-0.004;entryY=0.457;entryDx=0;entryDy=0;entryPerimeter=0;sketch=1;curveFitting=1;jiggle=2;fontStyle=1;fontFamily=Comic Sans MS;" parent="1" source="D2M3IoL3ii1Mz8xwvadH-34" target="D2M3IoL3ii1Mz8xwvadH-17" edge="1">
          <mxGeometry relative="1" as="geometry" />
        </mxCell>
        <mxCell id="-Cxwm64zh2NtwT7sseUx-31" value="" style="endArrow=classic;html=1;rounded=0;entryX=0;entryY=0.5;entryDx=0;entryDy=0;sketch=1;curveFitting=1;jiggle=2;fontStyle=1;fontFamily=Comic Sans MS;" parent="1" target="D2M3IoL3ii1Mz8xwvadH-12" edge="1">
          <mxGeometry width="50" height="50" relative="1" as="geometry">
            <mxPoint x="130" y="663" as="sourcePoint" />
            <mxPoint x="450" y="780" as="targetPoint" />
          </mxGeometry>
        </mxCell>
        <mxCell id="-Cxwm64zh2NtwT7sseUx-32" value="start/&lt;br style=&quot;font-size: 10px;&quot;&gt;restarts" style="text;html=1;strokeColor=none;fillColor=none;align=center;verticalAlign=middle;whiteSpace=wrap;rounded=0;sketch=1;curveFitting=1;jiggle=2;fontStyle=0;fontFamily=Comic Sans MS;fontSize=10;" parent="1" vertex="1">
          <mxGeometry x="157" y="669" width="60" height="30" as="geometry" />
        </mxCell>
        <mxCell id="-Cxwm64zh2NtwT7sseUx-33" value="" style="endArrow=classic;startArrow=classic;html=1;rounded=0;entryX=0;entryY=0;entryDx=0;entryDy=45;entryPerimeter=0;exitX=1;exitY=0.5;exitDx=0;exitDy=0;sketch=1;curveFitting=1;jiggle=2;" parent="1" source="D2M3IoL3ii1Mz8xwvadH-16" target="D2M3IoL3ii1Mz8xwvadH-4" edge="1">
          <mxGeometry width="50" height="50" relative="1" as="geometry">
            <mxPoint x="400" y="670" as="sourcePoint" />
            <mxPoint x="450" y="620" as="targetPoint" />
          </mxGeometry>
        </mxCell>
        <mxCell id="-Cxwm64zh2NtwT7sseUx-34" value="" style="endArrow=classic;startArrow=classic;html=1;rounded=0;entryX=0.5;entryY=1;entryDx=0;entryDy=0;exitX=0.5;exitY=0;exitDx=0;exitDy=0;exitPerimeter=0;sketch=1;curveFitting=1;jiggle=2;" parent="1" source="D2M3IoL3ii1Mz8xwvadH-4" target="D2M3IoL3ii1Mz8xwvadH-37" edge="1">
          <mxGeometry width="50" height="50" relative="1" as="geometry">
            <mxPoint x="400" y="670" as="sourcePoint" />
            <mxPoint x="450" y="620" as="targetPoint" />
          </mxGeometry>
        </mxCell>
      </root>
    </mxGraphModel>
  </diagram>
</mxfile>
